<mxfile host="65bd71144e">
    <diagram id="R2lEEEUBdFMjLlhIrx00" name="Page-1">
        <mxGraphModel dx="1955" dy="1808" grid="1" gridSize="10" guides="1" tooltips="1" connect="1" arrows="1" fold="1" page="1" pageScale="1" pageWidth="850" pageHeight="1100" math="0" shadow="0" extFonts="Permanent Marker^https://fonts.googleapis.com/css?family=Permanent+Marker">
            <root>
                <mxCell id="0"/>
                <mxCell id="1" parent="0"/>
                <mxCell id="BjgTfE8LFXhRjAly1MUj-1" value="powers" style="swimlane;childLayout=stackLayout;horizontal=1;startSize=50;horizontalStack=0;rounded=1;fontSize=14;fontStyle=0;strokeWidth=2;resizeParent=0;resizeLast=1;shadow=0;dashed=0;align=center;arcSize=4;whiteSpace=wrap;html=1;" parent="1" vertex="1">
                    <mxGeometry x="-360" y="-480" width="160" height="120" as="geometry"/>
                </mxCell>
                <mxCell id="BjgTfE8LFXhRjAly1MUj-2" value="#power_id&lt;div&gt;-name&lt;/div&gt;&lt;div&gt;-description&lt;/div&gt;" style="align=left;strokeColor=none;fillColor=none;spacingLeft=4;fontSize=12;verticalAlign=top;resizable=0;rotatable=0;part=1;html=1;" parent="BjgTfE8LFXhRjAly1MUj-1" vertex="1">
                    <mxGeometry y="50" width="160" height="70" as="geometry"/>
                </mxCell>
                <mxCell id="BjgTfE8LFXhRjAly1MUj-3" value="weaknesses&lt;span style=&quot;color: rgba(0, 0, 0, 0); font-family: monospace; font-size: 0px; text-align: start; text-wrap-mode: nowrap;&quot;&gt;%3CmxGraphModel%3E%3Croot%3E%3CmxCell%20id%3D%220%22%2F%3E%3CmxCell%20id%3D%221%22%20parent%3D%220%22%2F%3E%3CmxCell%20id%3D%222%22%20value%3D%22powers%22%20style%3D%22swimlane%3BchildLayout%3DstackLayout%3Bhorizontal%3D1%3BstartSize%3D50%3BhorizontalStack%3D0%3Brounded%3D1%3BfontSize%3D14%3BfontStyle%3D0%3BstrokeWidth%3D2%3BresizeParent%3D0%3BresizeLast%3D1%3Bshadow%3D0%3Bdashed%3D0%3Balign%3Dcenter%3BarcSize%3D4%3BwhiteSpace%3Dwrap%3Bhtml%3D1%3B%22%20vertex%3D%221%22%20parent%3D%221%22%3E%3CmxGeometry%20x%3D%22-50%22%20y%3D%2280%22%20width%3D%22160%22%20height%3D%22120%22%20as%3D%22geometry%22%2F%3E%3C%2FmxCell%3E%3CmxCell%20id%3D%223%22%20value%3D%22%2BAttribute1%26%2310%3B%2BAttribute2%26%2310%3B%2BAttribute3%22%20style%3D%22align%3Dleft%3BstrokeColor%3Dnone%3BfillColor%3Dnone%3BspacingLeft%3D4%3BfontSize%3D12%3BverticalAlign%3Dtop%3Bresizable%3D0%3Brotatable%3D0%3Bpart%3D1%3Bhtml%3D1%3B%22%20vertex%3D%221%22%20parent%3D%222%22%3E%3CmxGeometry%20y%3D%2250%22%20width%3D%22160%22%20height%3D%2270%22%20as%3D%22geometry%22%2F%3E%3C%2FmxCell%3E%3C%2Froot%3E%3C%2FmxGraphModel%3E&lt;/span&gt;" style="swimlane;childLayout=stackLayout;horizontal=1;startSize=50;horizontalStack=0;rounded=1;fontSize=14;fontStyle=0;strokeWidth=2;resizeParent=0;resizeLast=1;shadow=0;dashed=0;align=center;arcSize=4;whiteSpace=wrap;html=1;" parent="1" vertex="1">
                    <mxGeometry x="-615" y="-480" width="160" height="120" as="geometry"/>
                </mxCell>
                <mxCell id="BjgTfE8LFXhRjAly1MUj-4" value="#weakness_id&lt;div&gt;-name&lt;/div&gt;&lt;div&gt;-description&lt;/div&gt;" style="align=left;strokeColor=none;fillColor=none;spacingLeft=4;fontSize=12;verticalAlign=top;resizable=0;rotatable=0;part=1;html=1;" parent="BjgTfE8LFXhRjAly1MUj-3" vertex="1">
                    <mxGeometry y="50" width="160" height="70" as="geometry"/>
                </mxCell>
                <mxCell id="BjgTfE8LFXhRjAly1MUj-5" value="characters" style="swimlane;childLayout=stackLayout;horizontal=1;startSize=50;horizontalStack=0;rounded=1;fontSize=14;fontStyle=0;strokeWidth=2;resizeParent=0;resizeLast=1;shadow=0;dashed=0;align=center;arcSize=4;whiteSpace=wrap;html=1;" parent="1" vertex="1">
                    <mxGeometry x="-90" y="-810" width="160" height="120" as="geometry"/>
                </mxCell>
                <mxCell id="BjgTfE8LFXhRjAly1MUj-6" value="#character_id&lt;div&gt;-name&lt;/div&gt;" style="align=left;strokeColor=none;fillColor=none;spacingLeft=4;fontSize=12;verticalAlign=top;resizable=0;rotatable=0;part=1;html=1;" parent="BjgTfE8LFXhRjAly1MUj-5" vertex="1">
                    <mxGeometry y="50" width="160" height="70" as="geometry"/>
                </mxCell>
                <mxCell id="BjgTfE8LFXhRjAly1MUj-7" value="mortal_arms" style="swimlane;childLayout=stackLayout;horizontal=1;startSize=50;horizontalStack=0;rounded=1;fontSize=14;fontStyle=0;strokeWidth=2;resizeParent=0;resizeLast=1;shadow=0;dashed=0;align=center;arcSize=4;whiteSpace=wrap;html=1;" parent="1" vertex="1">
                    <mxGeometry x="600" y="-170" width="160" height="120" as="geometry"/>
                </mxCell>
                <mxCell id="BjgTfE8LFXhRjAly1MUj-8" value="#item_id-&lt;div&gt;name-&lt;/div&gt;&lt;div&gt;description-&lt;/div&gt;&lt;div&gt;availability&lt;/div&gt;" style="align=left;strokeColor=none;fillColor=none;spacingLeft=4;fontSize=12;verticalAlign=top;resizable=0;rotatable=0;part=1;html=1;" parent="BjgTfE8LFXhRjAly1MUj-7" vertex="1">
                    <mxGeometry y="50" width="160" height="70" as="geometry"/>
                </mxCell>
                <mxCell id="BjgTfE8LFXhRjAly1MUj-9" value="groups" style="swimlane;childLayout=stackLayout;horizontal=1;startSize=50;horizontalStack=0;rounded=1;fontSize=14;fontStyle=0;strokeWidth=2;resizeParent=0;resizeLast=1;shadow=0;dashed=0;align=center;arcSize=4;whiteSpace=wrap;html=1;" parent="1" vertex="1">
                    <mxGeometry x="80" y="-480" width="160" height="120" as="geometry"/>
                </mxCell>
                <mxCell id="BjgTfE8LFXhRjAly1MUj-10" value="#group_id&lt;div&gt;-name&lt;/div&gt;&lt;div&gt;-description&lt;/div&gt;&lt;div&gt;-category&lt;/div&gt;" style="align=left;strokeColor=none;fillColor=none;spacingLeft=4;fontSize=12;verticalAlign=top;resizable=0;rotatable=0;part=1;html=1;" parent="BjgTfE8LFXhRjAly1MUj-9" vertex="1">
                    <mxGeometry y="50" width="160" height="70" as="geometry"/>
                </mxCell>
                <mxCell id="BjgTfE8LFXhRjAly1MUj-11" value="villagers" style="swimlane;childLayout=stackLayout;horizontal=1;startSize=50;horizontalStack=0;rounded=1;fontSize=14;fontStyle=0;strokeWidth=2;resizeParent=0;resizeLast=1;shadow=0;dashed=0;align=center;arcSize=4;whiteSpace=wrap;html=1;" parent="1" vertex="1">
                    <mxGeometry x="340" y="-480" width="160" height="120" as="geometry"/>
                </mxCell>
                <mxCell id="BjgTfE8LFXhRjAly1MUj-12" value="#villager_id&lt;div&gt;-name&lt;/div&gt;&lt;div&gt;-description&lt;/div&gt;&lt;div&gt;-availability&lt;/div&gt;" style="align=left;strokeColor=none;fillColor=none;spacingLeft=4;fontSize=12;verticalAlign=top;resizable=0;rotatable=0;part=1;html=1;" parent="BjgTfE8LFXhRjAly1MUj-11" vertex="1">
                    <mxGeometry y="50" width="160" height="70" as="geometry"/>
                </mxCell>
                <mxCell id="BjgTfE8LFXhRjAly1MUj-13" value="customers" style="swimlane;childLayout=stackLayout;horizontal=1;startSize=50;horizontalStack=0;rounded=1;fontSize=14;fontStyle=0;strokeWidth=2;resizeParent=0;resizeLast=1;shadow=0;dashed=0;align=center;arcSize=4;whiteSpace=wrap;html=1;" parent="1" vertex="1">
                    <mxGeometry x="880" y="-430" width="160" height="120" as="geometry"/>
                </mxCell>
                <mxCell id="BjgTfE8LFXhRjAly1MUj-14" value="#customer_id-&lt;div&gt;name&lt;/div&gt;&lt;div&gt;-birthday&lt;/div&gt;&lt;div&gt;-email&lt;/div&gt;" style="align=left;strokeColor=none;fillColor=none;spacingLeft=4;fontSize=12;verticalAlign=top;resizable=0;rotatable=0;part=1;html=1;" parent="BjgTfE8LFXhRjAly1MUj-13" vertex="1">
                    <mxGeometry y="50" width="160" height="70" as="geometry"/>
                </mxCell>
                <mxCell id="BjgTfE8LFXhRjAly1MUj-15" value="comics" style="swimlane;childLayout=stackLayout;horizontal=1;startSize=50;horizontalStack=0;rounded=1;fontSize=14;fontStyle=0;strokeWidth=2;resizeParent=0;resizeLast=1;shadow=0;dashed=0;align=center;arcSize=4;whiteSpace=wrap;html=1;" parent="1" vertex="1">
                    <mxGeometry x="590" y="-660" width="160" height="140" as="geometry"/>
                </mxCell>
                <mxCell id="BjgTfE8LFXhRjAly1MUj-16" value="#comic_id&lt;div&gt;-title&lt;/div&gt;&lt;div&gt;-description&lt;/div&gt;&lt;div&gt;-price&lt;/div&gt;&lt;div&gt;-category&lt;/div&gt;" style="align=left;strokeColor=none;fillColor=none;spacingLeft=4;fontSize=12;verticalAlign=top;resizable=0;rotatable=0;part=1;html=1;" parent="BjgTfE8LFXhRjAly1MUj-15" vertex="1">
                    <mxGeometry y="50" width="160" height="90" as="geometry"/>
                </mxCell>
                <mxCell id="BjgTfE8LFXhRjAly1MUj-17" value="transactions" style="swimlane;childLayout=stackLayout;horizontal=1;startSize=50;horizontalStack=0;rounded=1;fontSize=14;fontStyle=0;strokeWidth=2;resizeParent=0;resizeLast=1;shadow=0;dashed=0;align=center;arcSize=4;whiteSpace=wrap;html=1;" parent="1" vertex="1">
                    <mxGeometry x="880" y="-650" width="160" height="170" as="geometry"/>
                </mxCell>
                <mxCell id="BjgTfE8LFXhRjAly1MUj-18" value="#transaction_id&lt;div&gt;-comic_id&lt;/div&gt;&lt;div&gt;-customer_id&lt;/div&gt;&lt;div&gt;-purchase_date&lt;/div&gt;&lt;div&gt;-total_amount&lt;/div&gt;" style="align=left;strokeColor=none;fillColor=none;spacingLeft=4;fontSize=12;verticalAlign=top;resizable=0;rotatable=0;part=1;html=1;" parent="BjgTfE8LFXhRjAly1MUj-17" vertex="1">
                    <mxGeometry y="50" width="160" height="120" as="geometry"/>
                </mxCell>
                <mxCell id="BjgTfE8LFXhRjAly1MUj-19" value="special_offers" style="swimlane;childLayout=stackLayout;horizontal=1;startSize=50;horizontalStack=0;rounded=1;fontSize=14;fontStyle=0;strokeWidth=2;resizeParent=0;resizeLast=1;shadow=0;dashed=0;align=center;arcSize=4;whiteSpace=wrap;html=1;" parent="1" vertex="1">
                    <mxGeometry x="-620" y="-250" width="160" height="120" as="geometry"/>
                </mxCell>
                <mxCell id="BjgTfE8LFXhRjAly1MUj-20" value="#offer_id&lt;div&gt;-customer_name&lt;/div&gt;&lt;div&gt;-customer_birthday&lt;/div&gt;" style="align=left;strokeColor=none;fillColor=none;spacingLeft=4;fontSize=12;verticalAlign=top;resizable=0;rotatable=0;part=1;html=1;" parent="BjgTfE8LFXhRjAly1MUj-19" vertex="1">
                    <mxGeometry y="50" width="160" height="70" as="geometry"/>
                </mxCell>
                <mxCell id="BjgTfE8LFXhRjAly1MUj-21" value="characters_groups" style="swimlane;childLayout=stackLayout;horizontal=1;startSize=50;horizontalStack=0;rounded=1;fontSize=14;fontStyle=0;strokeWidth=2;resizeParent=0;resizeLast=1;shadow=0;dashed=0;align=center;arcSize=4;whiteSpace=wrap;html=1;" parent="1" vertex="1">
                    <mxGeometry x="-140" y="-650" width="160" height="120" as="geometry"/>
                </mxCell>
                <mxCell id="BjgTfE8LFXhRjAly1MUj-23" value="characters_comics" style="swimlane;childLayout=stackLayout;horizontal=1;startSize=50;horizontalStack=0;rounded=1;fontSize=14;fontStyle=0;strokeWidth=2;resizeParent=0;resizeLast=1;shadow=0;dashed=0;align=center;arcSize=4;whiteSpace=wrap;html=1;" parent="1" vertex="1">
                    <mxGeometry x="340" y="-650" width="160" height="120" as="geometry"/>
                </mxCell>
                <mxCell id="BjgTfE8LFXhRjAly1MUj-25" value="characters_powers" style="swimlane;childLayout=stackLayout;horizontal=1;startSize=50;horizontalStack=0;rounded=1;fontSize=14;fontStyle=0;strokeWidth=2;resizeParent=0;resizeLast=1;shadow=0;dashed=0;align=center;arcSize=4;whiteSpace=wrap;html=1;" parent="1" vertex="1">
                    <mxGeometry x="-360" y="-650" width="160" height="120" as="geometry"/>
                </mxCell>
                <mxCell id="BjgTfE8LFXhRjAly1MUj-27" value="characters_weaknesses" style="swimlane;childLayout=stackLayout;horizontal=1;startSize=50;horizontalStack=0;rounded=1;fontSize=14;fontStyle=0;strokeWidth=2;resizeParent=0;resizeLast=1;shadow=0;dashed=0;align=center;arcSize=4;whiteSpace=wrap;html=1;" parent="1" vertex="1">
                    <mxGeometry x="-615" y="-650" width="170" height="120" as="geometry"/>
                </mxCell>
                <mxCell id="BjgTfE8LFXhRjAly1MUj-29" value="comics_mortal_arms" style="swimlane;childLayout=stackLayout;horizontal=1;startSize=50;horizontalStack=0;rounded=1;fontSize=14;fontStyle=0;strokeWidth=2;resizeParent=0;resizeLast=1;shadow=0;dashed=0;align=center;arcSize=4;whiteSpace=wrap;html=1;" parent="1" vertex="1">
                    <mxGeometry x="600" y="-330" width="160" height="120" as="geometry"/>
                </mxCell>
                <mxCell id="BjgTfE8LFXhRjAly1MUj-32" value="" style="edgeStyle=entityRelationEdgeStyle;fontSize=12;html=1;endArrow=ERmany;rounded=0;" parent="1" source="BjgTfE8LFXhRjAly1MUj-5" target="BjgTfE8LFXhRjAly1MUj-21" edge="1">
                    <mxGeometry width="100" height="100" relative="1" as="geometry">
                        <mxPoint x="-520" y="112.68" as="sourcePoint"/>
                        <mxPoint x="-355.8399999999999" y="-22.679999999999893" as="targetPoint"/>
                    </mxGeometry>
                </mxCell>
                <mxCell id="BjgTfE8LFXhRjAly1MUj-33" value="" style="edgeStyle=entityRelationEdgeStyle;fontSize=12;html=1;endArrow=ERmany;rounded=0;" parent="1" source="BjgTfE8LFXhRjAly1MUj-5" target="BjgTfE8LFXhRjAly1MUj-25" edge="1">
                    <mxGeometry width="100" height="100" relative="1" as="geometry">
                        <mxPoint x="-470" y="130" as="sourcePoint"/>
                        <mxPoint x="-370" y="30" as="targetPoint"/>
                    </mxGeometry>
                </mxCell>
                <mxCell id="BjgTfE8LFXhRjAly1MUj-34" value="" style="edgeStyle=entityRelationEdgeStyle;fontSize=12;html=1;endArrow=ERmany;rounded=0;" parent="1" source="BjgTfE8LFXhRjAly1MUj-5" target="BjgTfE8LFXhRjAly1MUj-27" edge="1">
                    <mxGeometry width="100" height="100" relative="1" as="geometry">
                        <mxPoint x="-470" y="150" as="sourcePoint"/>
                        <mxPoint x="-370" y="50" as="targetPoint"/>
                    </mxGeometry>
                </mxCell>
                <mxCell id="BjgTfE8LFXhRjAly1MUj-31" value="" style="edgeStyle=entityRelationEdgeStyle;fontSize=12;html=1;endArrow=ERmany;rounded=0;" parent="1" source="BjgTfE8LFXhRjAly1MUj-5" target="BjgTfE8LFXhRjAly1MUj-23" edge="1">
                    <mxGeometry width="100" height="100" relative="1" as="geometry">
                        <mxPoint x="-460.00000000000006" y="-90" as="sourcePoint"/>
                        <mxPoint x="-290" y="-340" as="targetPoint"/>
                    </mxGeometry>
                </mxCell>
                <mxCell id="BjgTfE8LFXhRjAly1MUj-35" value="" style="edgeStyle=entityRelationEdgeStyle;fontSize=12;html=1;endArrow=ERmany;rounded=0;" parent="1" source="BjgTfE8LFXhRjAly1MUj-15" target="BjgTfE8LFXhRjAly1MUj-23" edge="1">
                    <mxGeometry width="100" height="100" relative="1" as="geometry">
                        <mxPoint x="-80" y="-360" as="sourcePoint"/>
                        <mxPoint x="20" y="-460" as="targetPoint"/>
                    </mxGeometry>
                </mxCell>
                <mxCell id="BjgTfE8LFXhRjAly1MUj-36" value="" style="edgeStyle=entityRelationEdgeStyle;fontSize=12;html=1;endArrow=ERoneToMany;rounded=0;" parent="1" source="BjgTfE8LFXhRjAly1MUj-9" target="BjgTfE8LFXhRjAly1MUj-21" edge="1">
                    <mxGeometry width="100" height="100" relative="1" as="geometry">
                        <mxPoint x="-120" y="-90" as="sourcePoint"/>
                        <mxPoint x="-20" y="-190" as="targetPoint"/>
                    </mxGeometry>
                </mxCell>
                <mxCell id="BjgTfE8LFXhRjAly1MUj-37" value="" style="edgeStyle=entityRelationEdgeStyle;fontSize=12;html=1;endArrow=ERmany;rounded=0;" parent="1" source="BjgTfE8LFXhRjAly1MUj-1" target="BjgTfE8LFXhRjAly1MUj-25" edge="1">
                    <mxGeometry width="100" height="100" relative="1" as="geometry">
                        <mxPoint x="-130" y="50" as="sourcePoint"/>
                        <mxPoint x="-30" y="-50" as="targetPoint"/>
                    </mxGeometry>
                </mxCell>
                <mxCell id="BjgTfE8LFXhRjAly1MUj-38" value="" style="edgeStyle=entityRelationEdgeStyle;fontSize=12;html=1;endArrow=ERmany;rounded=0;" parent="1" source="BjgTfE8LFXhRjAly1MUj-3" target="BjgTfE8LFXhRjAly1MUj-27" edge="1">
                    <mxGeometry width="100" height="100" relative="1" as="geometry">
                        <mxPoint x="-110" y="250" as="sourcePoint"/>
                        <mxPoint x="-10" y="150" as="targetPoint"/>
                    </mxGeometry>
                </mxCell>
                <mxCell id="BjgTfE8LFXhRjAly1MUj-39" value="" style="edgeStyle=entityRelationEdgeStyle;fontSize=12;html=1;endArrow=ERoneToMany;rounded=0;" parent="1" source="BjgTfE8LFXhRjAly1MUj-15" target="BjgTfE8LFXhRjAly1MUj-29" edge="1">
                    <mxGeometry width="100" height="100" relative="1" as="geometry">
                        <mxPoint x="160" y="-220" as="sourcePoint"/>
                        <mxPoint x="260" y="-320" as="targetPoint"/>
                    </mxGeometry>
                </mxCell>
                <mxCell id="BjgTfE8LFXhRjAly1MUj-41" value="" style="edgeStyle=entityRelationEdgeStyle;fontSize=12;html=1;endArrow=ERoneToMany;rounded=0;" parent="1" source="BjgTfE8LFXhRjAly1MUj-7" target="BjgTfE8LFXhRjAly1MUj-29" edge="1">
                    <mxGeometry width="100" height="100" relative="1" as="geometry">
                        <mxPoint x="400" y="-110" as="sourcePoint"/>
                        <mxPoint x="500" y="-210" as="targetPoint"/>
                    </mxGeometry>
                </mxCell>
                <mxCell id="BjgTfE8LFXhRjAly1MUj-42" value="" style="edgeStyle=entityRelationEdgeStyle;fontSize=12;html=1;endArrow=ERoneToMany;rounded=0;" parent="1" source="BjgTfE8LFXhRjAly1MUj-11" target="BjgTfE8LFXhRjAly1MUj-43" edge="1">
                    <mxGeometry width="100" height="100" relative="1" as="geometry">
                        <mxPoint x="140" y="-410" as="sourcePoint"/>
                        <mxPoint x="240" y="-510" as="targetPoint"/>
                    </mxGeometry>
                </mxCell>
                <mxCell id="BjgTfE8LFXhRjAly1MUj-43" value="villagers_comics" style="swimlane;childLayout=stackLayout;horizontal=1;startSize=50;horizontalStack=0;rounded=1;fontSize=14;fontStyle=0;strokeWidth=2;resizeParent=0;resizeLast=1;shadow=0;dashed=0;align=center;arcSize=4;whiteSpace=wrap;html=1;" parent="1" vertex="1">
                    <mxGeometry x="590" y="-480" width="160" height="120" as="geometry"/>
                </mxCell>
                <mxCell id="BjgTfE8LFXhRjAly1MUj-44" value="" style="edgeStyle=entityRelationEdgeStyle;fontSize=12;html=1;endArrow=ERoneToMany;rounded=0;entryX=1;entryY=0.75;entryDx=0;entryDy=0;" parent="1" source="BjgTfE8LFXhRjAly1MUj-16" target="BjgTfE8LFXhRjAly1MUj-43" edge="1">
                    <mxGeometry width="100" height="100" relative="1" as="geometry">
                        <mxPoint x="-90" y="-310" as="sourcePoint"/>
                        <mxPoint x="-90" y="-480" as="targetPoint"/>
                    </mxGeometry>
                </mxCell>
                <mxCell id="BjgTfE8LFXhRjAly1MUj-45" value="" style="edgeStyle=entityRelationEdgeStyle;fontSize=12;html=1;endArrow=ERoneToMany;rounded=0;" parent="1" source="BjgTfE8LFXhRjAly1MUj-14" target="BjgTfE8LFXhRjAly1MUj-18" edge="1">
                    <mxGeometry width="100" height="100" relative="1" as="geometry">
                        <mxPoint x="210" y="190" as="sourcePoint"/>
                        <mxPoint x="310" y="90" as="targetPoint"/>
                    </mxGeometry>
                </mxCell>
                <mxCell id="BjgTfE8LFXhRjAly1MUj-46" value="" style="edgeStyle=entityRelationEdgeStyle;fontSize=12;html=1;endArrow=ERoneToMany;rounded=0;" parent="1" source="BjgTfE8LFXhRjAly1MUj-16" target="BjgTfE8LFXhRjAly1MUj-17" edge="1">
                    <mxGeometry width="100" height="100" relative="1" as="geometry">
                        <mxPoint x="180" y="-100" as="sourcePoint"/>
                        <mxPoint x="280" y="-200" as="targetPoint"/>
                    </mxGeometry>
                </mxCell>
            </root>
        </mxGraphModel>
    </diagram>
</mxfile>